<svg width="25" height="25" viewBox="0 0 25 25" fill="none" xmlns="http://www.w3.org/2000/svg">
<g clip-path="url(#clip0_15_482)">
<path d="M7.13833 10.6375C7.52823 9.45787 8.28071 8.43151 9.28842 7.70483C10.2961 6.97815 11.5076 6.58828 12.75 6.59083C14.1583 6.59083 15.4317 7.09083 16.4317 7.90917L19.3417 5C17.5683 3.45417 15.2958 2.5 12.75 2.5C8.80833 2.5 5.41499 4.74833 3.78333 8.04167L7.13833 10.6375Z" fill="#EA4335"/>
<path d="M16.1167 17.5108C15.2083 18.0967 14.055 18.4092 12.75 18.4092C11.5125 18.4117 10.3057 18.025 9.30019 17.3036C8.29472 16.5823 7.54161 15.563 7.14749 14.39L3.78082 16.9458C4.60686 18.6178 5.88521 20.0245 7.47068 21.0063C9.05614 21.9881 10.8852 22.5056 12.75 22.5C15.1942 22.5 17.5292 21.6308 19.2783 20L16.1175 17.5108H16.1167Z" fill="#34A853"/>
<path d="M19.2783 20C21.1075 18.2933 22.295 15.7533 22.295 12.5C22.295 11.9083 22.2042 11.2725 22.0683 10.6817H12.75V14.5458H18.1133C17.8492 15.845 17.1383 16.8508 16.1175 17.5108L19.2783 20Z" fill="#4A90E2"/>
<path d="M7.14751 14.39C6.94363 13.7807 6.84006 13.1424 6.84084 12.5C6.84084 11.8483 6.94501 11.2225 7.13834 10.6375L3.78334 8.04166C3.09699 9.42723 2.74318 10.9538 2.75001 12.5C2.75001 14.1 3.12084 15.6083 3.78084 16.9458L7.14751 14.39Z" fill="#FBBC05"/>
</g>
<defs>
<clipPath id="clip0_15_482">
<rect width="20" height="20" fill="white" transform="translate(2.75 2.5)"/>
</clipPath>
</defs>
</svg>
