<svg width="63" height="80" viewBox="0 0 63 80" fill="none" xmlns="http://www.w3.org/2000/svg">
<path d="M61.6354 15.2952C61.9046 17.1845 62.0397 19.0904 62.0398 20.9988C62.0398 40.3964 48.3736 56.1126 31.5 56.1126C14.6264 56.1126 0.974154 40.3964 0.974154 20.9988C0.974217 19.0904 1.10935 17.1845 1.37855 15.2952C0.793911 17.5733 0.49873 19.9159 0.500004 22.2678C0.500004 44.2871 19.298 64.7167 31.5 79.3173C44.0506 64.5215 62.5 43.9106 62.5 22.2678C62.499 19.9169 62.2086 17.5751 61.6354 15.2952Z" fill="#2C376D"/>
<path d="M55.904 15.9366C54.4044 12.4855 52.1869 9.39332 49.3991 6.86598C46.6114 4.33865 43.3173 2.43409 39.7361 1.27908C36.1549 0.124063 32.3687 -0.254907 28.6296 0.167388C24.8906 0.589682 21.2843 1.80356 18.0509 3.72821C14.8175 5.65287 12.0312 8.24416 9.87734 11.3296C7.72348 14.4151 6.25152 17.9239 5.55945 21.6225C4.86737 25.3212 4.97106 29.1249 5.86358 32.7803C6.75611 36.4358 8.41701 39.8592 10.7357 42.8228C11.4991 43.8117 12.3334 44.7438 13.2319 45.6118V44.2173H14.6264V29.9375H24.0254V44.0918H25.4199V45.7931H26.5355V47.7175H27.2049V43.8687H28.2368V41.9163L33.1037 40.2987V43.8687H34.0101V47.7175H34.805V19.144H36.9525V18.126H39.2256V19.144H40.132V45.2911H41.15V24.973H42.168V23.7877H44.0924V24.973H46.6583V43.7571H47.4951V31.7504H48.0529V31.0113L50.8419 30.2861V44.5101C51.4555 43.8547 52.0412 43.1156 52.585 42.4602C55.439 38.7357 57.2528 34.3201 57.8408 29.6649C58.4288 25.0096 57.7701 20.2817 55.9318 15.9645L55.904 15.9366Z" fill="#93C020"/>
</svg>
