<svg width="25" height="24" viewBox="0 0 25 24" fill="none" xmlns="http://www.w3.org/2000/svg">
<path opacity="0.25" d="M13.5458 3.21744C13.1235 3.0063 12.6265 3.0063 12.2042 3.21744L6.70418 5.96744C6.196 6.22153 5.875 6.74092 5.875 7.30908V18.0001C5.875 19.6569 7.21815 21.0001 8.875 21.0001H16.875C18.5319 21.0001 19.875 19.6569 19.875 18.0001V7.30908C19.875 6.74092 19.554 6.22153 19.0458 5.96744L13.5458 3.21744Z" fill="#A8B7CC"/>
<path fill-rule="evenodd" clip-rule="evenodd" d="M14.875 21H10.875V17C10.875 15.8954 11.7704 15 12.875 15C13.9796 15 14.875 15.8954 14.875 17V21Z" fill="#A8B7CC"/>
<path fill-rule="evenodd" clip-rule="evenodd" d="M3.98058 8.44721C4.22757 8.94119 4.82824 9.14141 5.32222 8.89442L12.875 5.11803L20.4278 8.89442C20.9218 9.14141 21.5224 8.94119 21.7694 8.44721C22.0164 7.95323 21.8162 7.35256 21.3222 7.10557L13.3222 3.10557C13.0407 2.9648 12.7093 2.9648 12.4278 3.10557L4.42779 7.10557C3.93381 7.35256 3.73359 7.95323 3.98058 8.44721Z" fill="#A8B7CC"/>
</svg>
