<svg width="25" height="24" viewBox="0 0 25 24" fill="none" xmlns="http://www.w3.org/2000/svg">
<path d="M22.804 6.40219L17.9028 3.10814C17.6852 2.96395 17.417 2.96395 17.1983 3.10814L12.647 6.16416L8.095 3.10814C7.87736 2.96395 7.60544 2.96395 7.38897 3.10814L2.46925 6.40219C2.26305 6.54042 2.125 6.78994 2.125 7.06078V20.2313C2.125 20.508 2.26891 20.7631 2.4842 20.9002C2.70077 21.0351 2.97086 21.0328 3.18283 20.8898L7.73852 17.8336L12.2939 20.8898C12.5126 21.0351 12.7832 21.0351 13.0009 20.8898L17.5552 17.8336L22.1092 20.8898C22.2175 20.9624 22.3394 21 22.4625 21C22.5776 21 22.6833 20.965 22.7892 20.9002C23.0045 20.7631 23.125 20.508 23.125 20.2313V7.06078C23.125 6.78994 23.0113 6.54042 22.804 6.40219ZM6.95312 16.5585L3.625 18.8743V7.54228L6.95312 5.22534V16.5585ZM8.45312 16.5359V10.7843C8.50693 10.819 8.5599 10.855 8.61198 10.8922L9.04947 10.283C8.86647 10.1516 8.66078 10.0252 8.45312 9.92184V5.20275L11.875 7.49925V12.5887C11.6232 12.5017 11.3788 12.3838 11.13 12.2286L10.7329 12.8648C11.0539 13.0651 11.3714 13.2149 11.7034 13.3226L11.875 12.7935V18.8313L8.45312 16.5359ZM13.375 18.8313V13.5173C13.3914 13.5163 13.4075 13.5159 13.4239 13.5148C13.5576 13.5058 13.6908 13.491 13.8232 13.4704L13.707 12.7295C13.5969 12.7465 13.4861 12.7588 13.375 12.7663V7.49925L16.7969 5.20275V10.7709L16.5698 10.566C16.4293 10.7216 16.2964 10.8742 16.1679 11.0219C16.0832 11.119 16.0001 11.2144 15.9176 11.3076L16.4789 11.805C16.5642 11.7085 16.649 11.6117 16.7335 11.5144C16.7542 11.4906 16.7759 11.4659 16.7969 11.4418V16.536L13.375 18.8313ZM21.625 18.8274L18.2969 16.5569V10.1392C18.4743 10.0589 18.6568 9.999 18.8425 9.9615L18.694 9.22636C18.5595 9.25356 18.4269 9.28928 18.2969 9.33328V5.2237L21.625 7.49531V18.8274Z" fill="#A8B7CC"/>
<path opacity="0.25" d="M6.68523 10.3646C6.7892 10.3086 6.62181 10.3144 6.73267 10.2785L6.50167 9.56493C6.34664 9.61522 6.19648 9.67943 6.05303 9.75679C5.87378 9.85344 5.68998 9.98722 5.52151 10.1436L6.03189 10.6932C6.15451 10.5794 6.5612 10.4315 6.68523 10.3646ZM14.5376 12.4747L14.865 13.1495C15.1742 12.9994 15.467 12.8005 15.7601 12.5413L15.2633 11.9794C15.022 12.1928 14.7846 12.3548 14.5376 12.4747ZM5.28269 12.0003C5.37142 11.7225 5.44806 11.4826 5.61686 11.236L4.99792 10.8124C4.76711 11.1496 4.666 11.466 4.56822 11.772L4.55687 11.8075L5.27115 12.0362L5.28269 12.0003ZM9.92083 11.1447C9.87362 11.0882 9.82642 11.0318 9.7787 10.9758L9.20786 11.4623C9.25408 11.5165 9.29978 11.5711 9.34548 11.6258C9.51391 11.8272 9.68805 12.0354 9.8897 12.2262L10.4051 11.6813C10.2353 11.5207 10.0825 11.338 9.92083 11.1447ZM19.7573 10.7652L20.2422 10.2803L20.7271 10.7652L21.2573 10.2348L20.7725 9.74999L21.2573 9.26516L20.7271 8.73477L20.2422 9.2196L19.7573 8.73477L19.2271 9.26516L19.7118 9.74999L19.2271 10.2348L19.7573 10.7652Z" fill="#A8B7CC"/>
</svg>
