<svg width="25" height="24" viewBox="0 0 25 24" fill="none" xmlns="http://www.w3.org/2000/svg">
<path opacity="0.25" d="M20.775 16.33C20.495 17.08 19.905 17.65 19.135 17.91C18.055 18.27 16.945 18.54 15.825 18.73C15.715 18.75 15.605 18.77 15.495 18.78C15.315 18.81 15.135 18.83 14.955 18.85C14.735 18.88 14.505 18.9 14.275 18.92C13.645 18.97 13.025 19 12.395 19C11.755 19 11.115 18.97 10.485 18.91C10.215 18.89 9.955 18.86 9.695 18.82C9.545 18.8 9.395 18.78 9.255 18.76C9.145 18.74 9.035 18.73 8.925 18.71C7.815 18.53 6.715 18.26 5.645 17.9C4.845 17.63 4.235 17.06 3.965 16.33C3.695 15.61 3.795 14.77 4.225 14.05L5.355 12.17C5.595 11.76 5.815 10.97 5.815 10.49V8.62999C5.815 4.99999 8.765 2.04999 12.395 2.04999C16.015 2.04999 18.965 4.99999 18.965 8.62999V10.49C18.965 10.97 19.185 11.76 19.435 12.17L20.565 14.05C20.975 14.75 21.055 15.57 20.775 16.33Z" fill="#A8B7CC"/>
<path d="M12.375 10.76C11.955 10.76 11.615 10.42 11.615 10V6.90001C11.615 6.48001 11.955 6.14001 12.375 6.14001C12.795 6.14001 13.135 6.48001 13.135 6.90001V10C13.125 10.42 12.785 10.76 12.375 10.76Z" fill="#A8B7CC"/>
<path d="M15.205 20.01C14.785 21.17 13.675 22 12.375 22C11.585 22 10.805 21.68 10.255 21.11C9.935 20.81 9.695 20.41 9.555 20C9.685 20.02 9.815 20.03 9.955 20.05C10.185 20.08 10.425 20.11 10.665 20.13C11.235 20.18 11.815 20.21 12.395 20.21C12.965 20.21 13.535 20.18 14.095 20.13C14.305 20.11 14.515 20.1 14.715 20.07C14.875 20.05 15.035 20.03 15.205 20.01Z" fill="#A8B7CC"/>
</svg>
