<svg width="25" height="24" viewBox="0 0 25 24" fill="none" xmlns="http://www.w3.org/2000/svg">
<path opacity="0.4" d="M12.125 13.112C15.2316 13.112 17.75 10.6245 17.75 7.556C17.75 4.48751 15.2316 2 12.125 2C9.0184 2 6.5 4.48751 6.5 7.556C6.5 10.6245 9.0184 13.112 12.125 13.112Z" fill="#A8B7CC"/>
<path d="M21.1152 18.6758C21.1203 18.5967 21.1203 18.5174 21.1152 18.4384C21.093 18.1461 21.0101 17.8608 20.8711 17.5982C20.3243 16.5297 18.7913 16.0457 17.5121 15.7717C16.5995 15.5817 15.6722 15.4596 14.7389 15.4064L13.7625 15.3333H13.3231H12.7762H11.4678H10.921H10.4816L9.5051 15.4064C8.57186 15.4596 7.64458 15.5817 6.73195 15.7717C5.45279 16.0091 3.91974 16.5023 3.37292 17.5982C3.23398 17.8608 3.15107 18.1461 3.12881 18.4384C3.12373 18.5174 3.12373 18.5967 3.12881 18.6758C3.12412 18.7549 3.12412 18.8342 3.12881 18.9133C3.15537 19.203 3.24157 19.4852 3.38269 19.7443C3.9295 20.8128 5.46255 21.2968 6.74172 21.5708C7.65605 21.7519 8.58262 21.8739 9.51487 21.9361L10.4913 22H10.7257H10.9307H13.3328H13.5379H13.7722L14.7487 21.9361C15.681 21.8739 16.6075 21.7519 17.5219 21.5708C18.801 21.3242 20.3341 20.8402 20.8809 19.7443C21.0154 19.477 21.0981 19.1894 21.125 18.895C21.1262 18.8218 21.123 18.7486 21.1152 18.6758Z" fill="#A8B7CC"/>
</svg>
