<svg width="139" height="141" viewBox="0 0 139 141" fill="none" xmlns="http://www.w3.org/2000/svg">
<path d="M69.5 0C78.7163 0 87.5551 3.71383 94.072 10.3245C100.589 16.9351 104.25 25.9011 104.25 35.25C104.25 44.5989 100.589 53.5649 94.072 60.1755C87.5551 66.7862 78.7163 70.5 69.5 70.5C60.2837 70.5 51.4449 66.7862 44.928 60.1755C38.4111 53.5649 34.75 44.5989 34.75 35.25C34.75 25.9011 38.4111 16.9351 44.928 10.3245C51.4449 3.71383 60.2837 0 69.5 0ZM69.5 88.125C107.899 88.125 139 103.899 139 123.375V141H0V123.375C0 103.899 31.1012 88.125 69.5 88.125Z" fill="#F1F4FB" fill-opacity="0.3"/>
</svg>
